# xmcd
#
# Track frame offsets: 
#        150
#        23437
#        41977
#        59922
#        78967
#        97670
#        139277
#        160690
#        179920
#        196217
#        219397
#        236345
#        258370
#        274417
#        295982
#        316722
#        333935
#
# Disc length: 4724 seconds
#
# Revision: 1
# Processed by: cddbd v1.4PL0 Copyright (c) Steve Scherf et al.
# Submitted via: ExactAudioCopy v0.90b4
#
DISCID=f4127211
DTITLE=Chris Rea - 17 Great Blues and Ballads of
DYEAR=1998
DGENRE=Blues
TTITLE0=On The Beach
TTITLE1=Chisel Hil
TTITLE2=Josephine
TTITLE3=All Summer Long
TTITLE4=Shine, Shine, Shine
TTITLE5=Nothing To Fear
TTITLE6=Gone Fishing
TTITLE7=Heaven
TTITLE8=Sing A Song Of Love
TTITLE9=Looking For The Summer
TTITLE10=I Just Wanna Be With You
TTITLE11=The Blue Cafe
TTITLE12=Thinking Of You
TTITLE13=Sweet Summer Day
TTITLE14=Where Do We Go From Here?
TTITLE15=Reasons
TTITLE16=The Road To Hell (Part II)
EXTD=
EXTT0=
EXTT1=
EXTT2=
EXTT3=
EXTT4=
EXTT5=
EXTT6=
EXTT7=
EXTT8=
EXTT9=
EXTT10=
EXTT11=
EXTT12=
EXTT13=
EXTT14=
EXTT15=
EXTT16=
PLAYORDER=
